<svg xmlns="http://www.w3.org/2000/svg" fill="none" viewBox="0 0 431 40" height="40" width="431">
<path fill="white" d="M8.31777 15.85V24.65C8.31777 27.05 8.31777 29.2 8.31777 31.1C8.35111 32.9667 8.43444 34.4333 8.56777 35.5C8.63444 36.2333 8.78444 36.85 9.01777 37.35C9.25111 37.85 9.75111 38.15 10.5178 38.25C10.8844 38.3167 11.2844 38.3667 11.7178 38.4C12.1844 38.4333 12.5344 38.45 12.7678 38.45C13.0344 38.45 13.1678 38.55 13.1678 38.75C13.1678 39.0167 12.9011 39.15 12.3678 39.15C11.6678 39.15 10.9678 39.1333 10.2678 39.1C9.56777 39.1 8.91777 39.0833 8.31777 39.05C7.75111 39.05 7.26777 39.0333 6.86777 39C6.50111 39 6.28444 39 6.21777 39C6.15111 39 5.91777 39 5.51777 39C5.15111 39.0333 4.71777 39.05 4.21777 39.05C3.71777 39.0833 3.20111 39.1 2.66777 39.1C2.13444 39.1333 1.68444 39.15 1.31777 39.15C0.78444 39.15 0.517774 39.0167 0.517774 38.75C0.517774 38.55 0.651107 38.45 0.917774 38.45C1.15111 38.45 1.40111 38.4333 1.66777 38.4C1.93444 38.3667 2.18444 38.3167 2.41777 38.25C2.91777 38.15 3.25111 37.85 3.41777 37.35C3.61777 36.85 3.76777 36.2333 3.86777 35.5C4.00111 34.4333 4.06777 32.9667 4.06777 31.1C4.10111 29.2 4.11777 27.05 4.11777 24.65V15.85C4.11777 13.9167 4.11777 12.3333 4.11777 11.1C4.11777 9.86667 4.11777 8.88333 4.11777 8.15C4.11777 7.38333 4.10111 6.78333 4.06777 6.35C4.06777 5.88333 4.05111 5.45 4.01777 5.05C3.91777 3.41666 3.35111 2.48333 2.31777 2.25C2.05111 2.18333 1.76777 2.13333 1.46777 2.1C1.16777 2.06667 0.93444 2.05 0.767774 2.05C0.501107 2.05 0.367774 1.95 0.367774 1.75C0.367774 1.48333 0.63444 1.35 1.16777 1.35C1.56777 1.35 2.05111 1.36667 2.61777 1.4C3.18444 1.4 3.71777 1.41666 4.21777 1.45C4.71777 1.45 5.15111 1.46666 5.51777 1.5C5.91777 1.5 6.15111 1.5 6.21777 1.5C6.28444 1.5 6.50111 1.5 6.86777 1.5C7.26777 1.46666 7.71777 1.45 8.21777 1.45C8.71777 1.41666 9.23444 1.4 9.76777 1.4C10.3011 1.36667 10.7511 1.35 11.1178 1.35C11.6511 1.35 11.9178 1.48333 11.9178 1.75C11.9178 1.95 11.7844 2.05 11.5178 2.05C11.3511 2.05 11.1678 2.06667 10.9678 2.1C10.8011 2.1 10.5678 2.13333 10.2678 2.2C9.60111 2.33333 9.13444 2.63333 8.86777 3.1C8.63444 3.53333 8.48444 4.18333 8.41777 5.05C8.38444 5.45 8.35111 5.88333 8.31777 6.35C8.31777 6.78333 8.31777 7.38333 8.31777 8.15C8.31777 8.88333 8.31777 9.86667 8.31777 11.1C8.31777 12.3333 8.31777 13.9167 8.31777 15.85ZM25.8793 11.46L26.4643 33.015C26.4943 33.945 26.5393 34.725 26.5993 35.355C26.6893 35.955 26.7943 36.465 26.9143 36.885C27.0643 37.275 27.2443 37.575 27.4543 37.785C27.6643 37.995 27.9193 38.145 28.2193 38.235C28.6393 38.355 29.0593 38.43 29.4793 38.46C29.9293 38.49 30.2593 38.505 30.4693 38.505C30.7093 38.505 30.8293 38.595 30.8293 38.775C30.8293 39.015 30.5593 39.135 30.0193 39.135C28.7293 39.135 27.6643 39.105 26.8243 39.045C25.9843 39.015 25.4593 39 25.2493 39C25.0393 39 24.5143 39.015 23.6743 39.045C22.8643 39.105 21.9493 39.135 20.9293 39.135C20.4493 39.135 20.2093 39.015 20.2093 38.775C20.2093 38.595 20.3293 38.505 20.5693 38.505C20.7493 38.505 21.0193 38.49 21.3793 38.46C21.7393 38.43 22.0843 38.355 22.4143 38.235C22.9843 38.085 23.3443 37.605 23.4943 36.795C23.6743 35.985 23.7643 34.56 23.7643 32.52L23.8093 6.735C23.8093 5.865 23.8393 5.28 23.8993 4.98C23.9893 4.65 24.1243 4.485 24.3043 4.485C24.4843 4.485 24.7243 4.665 25.0243 5.025C25.3543 5.385 25.6393 5.685 25.8793 5.925C26.0593 6.105 26.5693 6.675 27.4093 7.635C28.2793 8.565 29.3743 9.735 30.6943 11.145C32.0143 12.555 33.4843 14.145 35.1043 15.915C36.7543 17.685 38.4493 19.5 40.1893 21.36C41.2993 22.56 42.4093 23.775 43.5193 25.005C44.6593 26.235 45.7243 27.39 46.7143 28.47C47.7043 29.55 48.5743 30.51 49.3243 31.35C50.0743 32.16 50.6293 32.745 50.9893 33.105L50.4943 10.245C50.4643 8.775 50.3293 7.74 50.0893 7.14C49.8793 6.54 49.4293 6.15 48.7393 5.97C48.3193 5.88 47.8843 5.82 47.4343 5.79C47.0143 5.76 46.7143 5.745 46.5343 5.745C46.2943 5.745 46.1743 5.64 46.1743 5.43C46.1743 5.22 46.4743 5.115 47.0743 5.115C47.5843 5.115 48.0793 5.13 48.5593 5.16C49.0693 5.16 49.5343 5.175 49.9543 5.205C50.4043 5.205 50.7793 5.22 51.0793 5.25C51.4093 5.25 51.6343 5.25 51.7543 5.25C51.9943 5.25 52.4593 5.235 53.1493 5.205C53.8393 5.145 54.6493 5.115 55.5793 5.115C56.1193 5.115 56.3893 5.22 56.3893 5.43C56.3893 5.64 56.2243 5.745 55.8943 5.745C55.7743 5.745 55.6243 5.76 55.4443 5.79C55.2943 5.79 55.0843 5.82 54.8143 5.88C54.0643 6.03 53.5993 6.405 53.4193 7.005C53.2393 7.575 53.1493 8.535 53.1493 9.885L53.0593 36.255C53.0593 37.005 53.0443 37.59 53.0143 38.01C53.0143 38.43 52.9993 38.745 52.9693 38.955C52.9393 39.165 52.8943 39.3 52.8343 39.36C52.8043 39.42 52.7443 39.45 52.6543 39.45C52.5643 39.45 52.4443 39.405 52.2943 39.315C52.1743 39.255 51.9943 39.12 51.7543 38.91C51.5143 38.7 51.1993 38.415 50.8093 38.055C50.4493 37.665 49.9693 37.17 49.3693 36.57C49.2493 36.45 48.7843 36 47.9743 35.22C47.1943 34.41 46.2343 33.42 45.0943 32.25C43.9543 31.05 42.7243 29.76 41.4043 28.38C40.0843 27 38.8243 25.665 37.6243 24.375C36.3043 22.965 35.0143 21.585 33.7543 20.235C32.5243 18.855 31.3843 17.58 30.3343 16.41C29.2843 15.24 28.3693 14.235 27.5893 13.395C26.8093 12.525 26.2393 11.88 25.8793 11.46ZM67.8762 26.085V18.165C67.8762 16.425 67.8762 15 67.8762 13.89C67.8762 12.78 67.8762 11.895 67.8762 11.235C67.8762 10.545 67.8612 10.005 67.8312 9.615C67.8312 9.195 67.8162 8.805 67.7862 8.445C67.7262 7.665 67.5762 7.08 67.3362 6.69C67.0962 6.3 66.6012 6.03 65.8512 5.88C65.6712 5.82 65.4162 5.79 65.0862 5.79C64.7862 5.76 64.5312 5.745 64.3212 5.745C64.0812 5.745 63.9612 5.655 63.9612 5.475C63.9612 5.235 64.2012 5.115 64.6812 5.115C65.1912 5.115 65.7312 5.13 66.3012 5.16C66.8712 5.16 67.3962 5.175 67.8762 5.205C68.3862 5.205 68.8062 5.22 69.1362 5.25C69.4962 5.25 69.7062 5.25 69.7662 5.25C69.8862 5.25 70.1412 5.25 70.5312 5.25C70.9512 5.22 71.4312 5.205 71.9712 5.205C72.5412 5.175 73.1562 5.16 73.8162 5.16C74.4762 5.13 75.1512 5.115 75.8412 5.115C76.9512 5.115 78.2562 5.13 79.7562 5.16C81.2862 5.16 82.8762 5.31 84.5262 5.61C86.1762 5.91 87.8112 6.42 89.4312 7.14C91.0512 7.83 92.5362 8.865 93.8862 10.245C94.4562 10.845 94.9962 11.52 95.5062 12.27C96.0462 13.02 96.5112 13.875 96.9012 14.835C97.3212 15.765 97.6512 16.8 97.8912 17.94C98.1312 19.08 98.2512 20.325 98.2512 21.675C98.2512 23.085 98.1162 24.42 97.8462 25.68C97.5762 26.94 97.2162 28.11 96.7662 29.19C96.3162 30.24 95.7912 31.2 95.1912 32.07C94.6212 32.94 94.0212 33.705 93.3912 34.365C92.9112 34.875 92.2812 35.43 91.5012 36.03C90.7512 36.63 89.8212 37.2 88.7112 37.74C87.6012 38.25 86.3112 38.67 84.8412 39C83.3712 39.36 81.6762 39.54 79.7562 39.54C78.7962 39.54 77.7462 39.51 76.6062 39.45C75.4962 39.39 74.4612 39.33 73.5012 39.27C72.5112 39.21 71.6712 39.15 70.9812 39.09C70.2912 39.03 69.8862 39 69.7662 39C69.7062 39 69.5112 39 69.1812 39C68.8512 39 68.4462 39.015 67.9662 39.045C67.5162 39.045 67.0512 39.06 66.5712 39.09C66.0912 39.12 65.6862 39.135 65.3562 39.135C64.8762 39.135 64.6362 39.015 64.6362 38.775C64.6362 38.595 64.7562 38.505 64.9962 38.505C65.2062 38.505 65.4312 38.49 65.6712 38.46C65.9112 38.43 66.1362 38.385 66.3462 38.325C66.7962 38.235 67.0962 37.965 67.2462 37.515C67.4262 37.065 67.5612 36.51 67.6512 35.85C67.7712 34.89 67.8312 33.57 67.8312 31.89C67.8612 30.18 67.8762 28.245 67.8762 26.085ZM71.6562 17.445V23.025C71.6562 24.225 71.6562 25.365 71.6562 26.445C71.6562 27.525 71.6562 28.5 71.6562 29.37C71.6862 30.24 71.7012 30.975 71.7012 31.575C71.7312 32.175 71.7462 32.58 71.7462 32.79C71.7462 33.06 71.7612 33.375 71.7912 33.735C71.8212 34.065 71.8512 34.395 71.8812 34.725C71.9112 35.055 71.9562 35.355 72.0162 35.625C72.0762 35.895 72.1512 36.09 72.2412 36.21C72.3912 36.42 72.6162 36.63 72.9162 36.84C73.2462 37.05 73.6962 37.245 74.2662 37.425C74.8662 37.605 75.6162 37.755 76.5162 37.875C77.4462 37.965 78.5712 38.01 79.8912 38.01C81.9912 38.01 83.9562 37.65 85.7862 36.93C87.6462 36.21 89.2512 35.175 90.6012 33.825C91.1712 33.255 91.6812 32.565 92.1312 31.755C92.5812 30.945 92.9562 30.075 93.2562 29.145C93.5862 28.185 93.8262 27.195 93.9762 26.175C94.1262 25.155 94.2012 24.12 94.2012 23.07C94.2012 21.63 94.0662 20.325 93.7962 19.155C93.5262 17.985 93.1662 16.935 92.7162 16.005C92.2962 15.045 91.8312 14.22 91.3212 13.53C90.8112 12.81 90.3312 12.21 89.8812 11.73C88.8312 10.62 87.7212 9.735 86.5512 9.075C85.3812 8.385 84.1812 7.86 82.9512 7.5C81.7212 7.14 80.4462 6.915 79.1262 6.825C77.8362 6.705 76.5162 6.645 75.1662 6.645C74.9262 6.645 74.6562 6.66 74.3562 6.69C74.0862 6.69 73.8012 6.705 73.5012 6.735C73.2012 6.765 72.9312 6.81 72.6912 6.87C72.4812 6.9 72.3312 6.93 72.2412 6.96C71.8812 7.11 71.7012 7.41 71.7012 7.86C71.7012 8.25 71.6862 8.805 71.6562 9.525C71.6562 10.245 71.6562 11.055 71.6562 11.955C71.6562 12.825 71.6562 13.74 71.6562 14.7C71.6562 15.66 71.6562 16.575 71.6562 17.445ZM112.921 18.165V26.085C112.921 28.245 112.921 30.18 112.921 31.89C112.951 33.57 113.026 34.89 113.146 35.85C113.206 36.51 113.341 37.065 113.551 37.515C113.761 37.965 114.211 38.235 114.901 38.325C115.231 38.385 115.591 38.43 115.981 38.46C116.401 38.49 116.716 38.505 116.926 38.505C117.166 38.505 117.286 38.595 117.286 38.775C117.286 39.015 117.046 39.135 116.566 39.135C115.936 39.135 115.306 39.12 114.676 39.09C114.046 39.09 113.461 39.075 112.921 39.045C112.411 39.045 111.976 39.03 111.616 39C111.286 39 111.091 39 111.031 39C110.971 39 110.761 39 110.401 39C110.071 39.03 109.681 39.045 109.231 39.045C108.781 39.075 108.316 39.09 107.836 39.09C107.356 39.12 106.951 39.135 106.621 39.135C106.141 39.135 105.901 39.015 105.901 38.775C105.901 38.595 106.021 38.505 106.261 38.505C106.471 38.505 106.696 38.49 106.936 38.46C107.176 38.43 107.401 38.385 107.611 38.325C108.061 38.235 108.361 37.965 108.511 37.515C108.691 37.065 108.826 36.51 108.916 35.85C109.036 34.89 109.096 33.57 109.096 31.89C109.126 30.18 109.141 28.245 109.141 26.085V18.165C109.141 16.425 109.141 15 109.141 13.89C109.141 12.78 109.141 11.895 109.141 11.235C109.141 10.545 109.126 10.005 109.096 9.615C109.096 9.195 109.081 8.805 109.051 8.445C108.961 6.975 108.451 6.135 107.521 5.925C107.281 5.865 107.026 5.82 106.756 5.79C106.486 5.76 106.276 5.745 106.126 5.745C105.886 5.745 105.766 5.655 105.766 5.475C105.766 5.235 106.006 5.115 106.486 5.115C106.846 5.115 107.281 5.13 107.791 5.16C108.301 5.16 108.781 5.175 109.231 5.205C109.681 5.205 110.071 5.22 110.401 5.25C110.761 5.25 110.971 5.25 111.031 5.25C111.091 5.25 111.286 5.25 111.616 5.25C111.976 5.22 112.381 5.205 112.831 5.205C113.281 5.175 113.746 5.16 114.226 5.16C114.706 5.13 115.111 5.115 115.441 5.115C115.921 5.115 116.161 5.235 116.161 5.475C116.161 5.655 116.041 5.745 115.801 5.745C115.651 5.745 115.486 5.76 115.306 5.79C115.156 5.79 114.946 5.82 114.676 5.88C114.076 6 113.656 6.27 113.416 6.69C113.206 7.08 113.071 7.665 113.011 8.445C112.981 8.805 112.951 9.195 112.921 9.615C112.921 10.005 112.921 10.545 112.921 11.235C112.921 11.895 112.921 12.78 112.921 13.89C112.921 15 112.921 16.425 112.921 18.165ZM125.225 34.185L135.44 6.24C135.71 5.49 135.905 5.01 136.025 4.8C136.145 4.59 136.28 4.485 136.43 4.485C136.58 4.485 136.715 4.59 136.835 4.8C136.955 4.98 137.15 5.415 137.42 6.105C137.54 6.375 137.81 7.08 138.23 8.22C138.68 9.36 139.205 10.755 139.805 12.405C140.435 14.025 141.125 15.81 141.875 17.76C142.625 19.71 143.36 21.645 144.08 23.565C144.83 25.455 145.535 27.255 146.195 28.965C146.885 30.675 147.455 32.1 147.905 33.24C148.295 34.23 148.67 35.04 149.03 35.67C149.42 36.3 149.765 36.795 150.065 37.155C150.395 37.515 150.695 37.77 150.965 37.92C151.265 38.07 151.535 38.175 151.775 38.235C152.105 38.355 152.42 38.43 152.72 38.46C153.05 38.49 153.335 38.505 153.575 38.505C153.875 38.505 154.025 38.595 154.025 38.775C154.025 38.925 153.935 39.015 153.755 39.045C153.575 39.105 153.365 39.135 153.125 39.135C152.945 39.135 152.615 39.135 152.135 39.135C151.685 39.135 151.13 39.135 150.47 39.135C149.84 39.135 149.135 39.12 148.355 39.09C147.605 39.09 146.84 39.075 146.06 39.045C145.64 39.015 145.31 39 145.07 39C144.83 38.97 144.71 38.88 144.71 38.73C144.71 38.58 144.815 38.475 145.025 38.415C145.175 38.355 145.295 38.235 145.385 38.055C145.475 37.845 145.445 37.56 145.295 37.2L141.11 26.13C141.02 25.95 140.885 25.86 140.705 25.86H131.03C130.82 25.86 130.67 25.98 130.58 26.22L127.88 34.185C127.46 35.355 127.25 36.36 127.25 37.2C127.25 37.65 127.43 37.98 127.79 38.19C128.18 38.4 128.57 38.505 128.96 38.505H129.41C129.71 38.505 129.86 38.595 129.86 38.775C129.86 39.015 129.635 39.135 129.185 39.135C128.915 39.135 128.6 39.12 128.24 39.09C127.88 39.09 127.535 39.075 127.205 39.045C126.875 39.045 126.56 39.03 126.26 39C125.99 39 125.795 39 125.675 39C125.555 39 125.315 39 124.955 39C124.625 39.03 124.22 39.045 123.74 39.045C123.26 39.075 122.75 39.09 122.21 39.09C121.67 39.12 121.13 39.135 120.59 39.135C120.02 39.135 119.735 39.015 119.735 38.775C119.735 38.595 119.87 38.505 120.14 38.505C120.29 38.505 120.5 38.505 120.77 38.505C121.04 38.475 121.265 38.445 121.445 38.415C122.495 38.265 123.275 37.815 123.785 37.065C124.325 36.285 124.805 35.325 125.225 34.185ZM131.525 24.24H140.12C140.3 24.24 140.36 24.135 140.3 23.925L136.025 11.775C135.785 11.115 135.56 11.115 135.35 11.775L131.39 23.925C131.3 24.135 131.345 24.24 131.525 24.24ZM161.099 11.46L161.684 33.015C161.714 33.945 161.759 34.725 161.819 35.355C161.909 35.955 162.014 36.465 162.134 36.885C162.284 37.275 162.464 37.575 162.674 37.785C162.884 37.995 163.139 38.145 163.439 38.235C163.859 38.355 164.279 38.43 164.699 38.46C165.149 38.49 165.479 38.505 165.689 38.505C165.929 38.505 166.049 38.595 166.049 38.775C166.049 39.015 165.779 39.135 165.239 39.135C163.949 39.135 162.884 39.105 162.044 39.045C161.204 39.015 160.679 39 160.469 39C160.259 39 159.734 39.015 158.894 39.045C158.084 39.105 157.169 39.135 156.149 39.135C155.669 39.135 155.429 39.015 155.429 38.775C155.429 38.595 155.549 38.505 155.789 38.505C155.969 38.505 156.239 38.49 156.599 38.46C156.959 38.43 157.304 38.355 157.634 38.235C158.204 38.085 158.564 37.605 158.714 36.795C158.894 35.985 158.984 34.56 158.984 32.52L159.029 6.735C159.029 5.865 159.059 5.28 159.119 4.98C159.209 4.65 159.344 4.485 159.524 4.485C159.704 4.485 159.944 4.665 160.244 5.025C160.574 5.385 160.859 5.685 161.099 5.925C161.279 6.105 161.789 6.675 162.629 7.635C163.499 8.565 164.594 9.735 165.914 11.145C167.234 12.555 168.704 14.145 170.324 15.915C171.974 17.685 173.669 19.5 175.409 21.36C176.519 22.56 177.629 23.775 178.739 25.005C179.879 26.235 180.944 27.39 181.934 28.47C182.924 29.55 183.794 30.51 184.544 31.35C185.294 32.16 185.849 32.745 186.209 33.105L185.714 10.245C185.684 8.775 185.549 7.74 185.309 7.14C185.099 6.54 184.649 6.15 183.959 5.97C183.539 5.88 183.104 5.82 182.654 5.79C182.234 5.76 181.934 5.745 181.754 5.745C181.514 5.745 181.394 5.64 181.394 5.43C181.394 5.22 181.694 5.115 182.294 5.115C182.804 5.115 183.299 5.13 183.779 5.16C184.289 5.16 184.754 5.175 185.174 5.205C185.624 5.205 185.999 5.22 186.299 5.25C186.629 5.25 186.854 5.25 186.974 5.25C187.214 5.25 187.679 5.235 188.369 5.205C189.059 5.145 189.869 5.115 190.799 5.115C191.339 5.115 191.609 5.22 191.609 5.43C191.609 5.64 191.444 5.745 191.114 5.745C190.994 5.745 190.844 5.76 190.664 5.79C190.514 5.79 190.304 5.82 190.034 5.88C189.284 6.03 188.819 6.405 188.639 7.005C188.459 7.575 188.369 8.535 188.369 9.885L188.279 36.255C188.279 37.005 188.264 37.59 188.234 38.01C188.234 38.43 188.219 38.745 188.189 38.955C188.159 39.165 188.114 39.3 188.054 39.36C188.024 39.42 187.964 39.45 187.874 39.45C187.784 39.45 187.664 39.405 187.514 39.315C187.394 39.255 187.214 39.12 186.974 38.91C186.734 38.7 186.419 38.415 186.029 38.055C185.669 37.665 185.189 37.17 184.589 36.57C184.469 36.45 184.004 36 183.194 35.22C182.414 34.41 181.454 33.42 180.314 32.25C179.174 31.05 177.944 29.76 176.624 28.38C175.304 27 174.044 25.665 172.844 24.375C171.524 22.965 170.234 21.585 168.974 20.235C167.744 18.855 166.604 17.58 165.554 16.41C164.504 15.24 163.589 14.235 162.809 13.395C162.029 12.525 161.459 11.88 161.099 11.46ZM229.27 3.5V24.65C229.27 27.05 229.27 29.2 229.27 31.1C229.303 32.9667 229.386 34.4333 229.52 35.5C229.586 36.2333 229.736 36.85 229.97 37.35C230.203 37.85 230.703 38.15 231.47 38.25C231.836 38.3167 232.236 38.3667 232.67 38.4C233.136 38.4333 233.486 38.45 233.72 38.45C233.986 38.45 234.12 38.55 234.12 38.75C234.12 39.0167 233.853 39.15 233.32 39.15C232.62 39.15 231.92 39.1333 231.22 39.1C230.52 39.1 229.87 39.0833 229.27 39.05C228.703 39.05 228.22 39.0333 227.82 39C227.453 39 227.236 39 227.17 39C227.103 39 226.87 39 226.47 39C226.103 39.0333 225.67 39.05 225.17 39.05C224.67 39.0833 224.153 39.1 223.62 39.1C223.086 39.1333 222.636 39.15 222.27 39.15C221.736 39.15 221.47 39.0167 221.47 38.75C221.47 38.55 221.603 38.45 221.87 38.45C222.103 38.45 222.353 38.4333 222.62 38.4C222.886 38.3667 223.136 38.3167 223.37 38.25C223.87 38.15 224.203 37.85 224.37 37.35C224.57 36.85 224.72 36.2333 224.82 35.5C224.953 34.4333 225.02 32.9667 225.02 31.1C225.053 29.2 225.07 27.05 225.07 24.65V3.5L217.67 3.6C216.903 3.6 216.236 3.63333 215.67 3.7C215.136 3.76666 214.67 3.86666 214.27 4C213.87 4.1 213.536 4.25 213.27 4.45C213.003 4.65 212.77 4.9 212.57 5.2C212.303 5.63333 212.103 5.96666 211.97 6.2C211.87 6.4 211.786 6.58333 211.72 6.75C211.586 7.08333 211.42 7.25 211.22 7.25C211.053 7.25 210.97 7.1 210.97 6.8C210.97 6.66667 211.02 6.35 211.12 5.85C211.22 5.31667 211.336 4.75 211.47 4.15C211.603 3.55 211.72 3 211.82 2.5C211.953 2 212.036 1.7 212.07 1.6C212.136 1.43333 212.203 1.23333 212.27 0.999997C212.37 0.766665 212.47 0.649999 212.57 0.649999C212.736 0.649999 212.97 0.733332 213.27 0.899999C213.603 1.06667 214.103 1.18333 214.77 1.25C215.503 1.31667 216.27 1.38333 217.07 1.45C217.87 1.48333 218.42 1.5 218.72 1.5H237.47C238.27 1.5 238.953 1.48333 239.52 1.45C240.12 1.38333 240.62 1.31667 241.02 1.25C241.386 1.18333 241.686 1.13333 241.92 1.1C242.153 1.03333 242.32 0.999997 242.42 0.999997C242.553 0.999997 242.62 1.06666 242.62 1.2C242.653 1.3 242.67 1.43333 242.67 1.6C242.67 1.96666 242.653 2.43333 242.62 3C242.62 3.56667 242.603 4.13333 242.57 4.7C242.57 5.26666 242.553 5.78333 242.52 6.25C242.52 6.68333 242.52 6.96667 242.52 7.1C242.52 7.53333 242.403 7.75 242.17 7.75C242.036 7.75 241.936 7.7 241.87 7.6C241.836 7.5 241.803 7.26666 241.77 6.9L241.72 6.35C241.686 5.98333 241.57 5.63333 241.37 5.3C241.17 4.96667 240.836 4.68333 240.37 4.45C239.936 4.21667 239.32 4.03333 238.52 3.9C237.753 3.73333 236.77 3.63333 235.57 3.6L229.27 3.5ZM252.3 26.085V18.165C252.3 16.425 252.3 15 252.3 13.89C252.3 12.78 252.3 11.895 252.3 11.235C252.3 10.545 252.285 10.005 252.255 9.615C252.255 9.195 252.24 8.805 252.21 8.445C252.15 7.665 252 7.08 251.76 6.69C251.52 6.3 251.025 6.03 250.275 5.88C250.095 5.82 249.84 5.79 249.51 5.79C249.21 5.76 248.955 5.745 248.745 5.745C248.505 5.745 248.385 5.655 248.385 5.475C248.385 5.235 248.625 5.115 249.105 5.115C249.615 5.115 250.155 5.115 250.725 5.115C251.295 5.115 251.835 5.13 252.345 5.16L254.19 5.25C254.28 5.25 254.805 5.25 255.765 5.25C256.755 5.25 257.85 5.25 259.05 5.25C260.28 5.25 261.42 5.25 262.47 5.25C263.55 5.22 264.225 5.205 264.495 5.205C265.365 5.145 266.01 5.07 266.43 4.98C266.55 4.95 266.655 4.905 266.745 4.845C266.835 4.785 266.94 4.755 267.06 4.755C267.18 4.755 267.24 4.89 267.24 5.16C267.24 5.31 267.195 5.55 267.105 5.88C267.015 6.18 266.94 6.645 266.88 7.275C266.88 7.395 266.865 7.59 266.835 7.86C266.835 8.13 266.82 8.43 266.79 8.76C266.76 9.06 266.73 9.36 266.7 9.66C266.7 9.93 266.685 10.125 266.655 10.245C266.625 10.365 266.58 10.485 266.52 10.605C266.49 10.695 266.43 10.74 266.34 10.74C266.1 10.74 265.98 10.545 265.98 10.155C265.98 10.005 265.965 9.765 265.935 9.435C265.905 9.105 265.83 8.805 265.71 8.535C265.56 8.175 265.29 7.875 264.9 7.635C264.51 7.365 263.715 7.155 262.515 7.005C262.335 6.975 261.93 6.96 261.3 6.96C260.67 6.93 260.01 6.915 259.32 6.915C258.63 6.885 257.985 6.87 257.385 6.87C256.815 6.87 256.47 6.87 256.35 6.87C256.17 6.87 256.08 7.02 256.08 7.32V19.74C256.08 20.04 256.17 20.19 256.35 20.19C256.5 20.19 256.905 20.19 257.565 20.19C258.225 20.19 258.945 20.19 259.725 20.19C260.535 20.19 261.3 20.19 262.02 20.19C262.74 20.16 263.235 20.13 263.505 20.1C264.045 20.04 264.48 19.98 264.81 19.92C265.14 19.86 265.41 19.71 265.62 19.47C265.95 19.08 266.175 18.885 266.295 18.885C266.445 18.885 266.52 19.005 266.52 19.245C266.52 19.395 266.475 19.665 266.385 20.055C266.295 20.445 266.22 21.015 266.16 21.765C266.13 22.005 266.1 22.275 266.07 22.575C266.07 22.845 266.055 23.13 266.025 23.43C266.025 23.7 266.01 23.955 265.98 24.195C265.98 24.405 265.98 24.555 265.98 24.645C265.98 24.825 265.965 25.02 265.935 25.23C265.905 25.41 265.815 25.5 265.665 25.5C265.455 25.5 265.35 25.365 265.35 25.095C265.35 24.855 265.335 24.63 265.305 24.42C265.305 24.18 265.26 23.91 265.17 23.61C265.08 23.28 264.885 22.965 264.585 22.665C264.285 22.335 263.7 22.125 262.83 22.035C262.53 22.005 262.05 21.975 261.39 21.945C260.76 21.915 260.1 21.9 259.41 21.9C258.75 21.87 258.12 21.855 257.52 21.855C256.95 21.825 256.575 21.81 256.395 21.81C256.185 21.81 256.08 21.915 256.08 22.125V26.085C256.08 26.475 256.08 27.045 256.08 27.795C256.08 28.545 256.08 29.325 256.08 30.135C256.08 30.945 256.08 31.695 256.08 32.385C256.08 33.075 256.08 33.54 256.08 33.78C256.11 34.56 256.185 35.19 256.305 35.67C256.455 36.15 256.71 36.525 257.07 36.795C257.46 37.065 257.985 37.245 258.645 37.335C259.305 37.425 260.19 37.47 261.3 37.47C261.9 37.47 262.62 37.455 263.46 37.425C264.3 37.365 265.02 37.215 265.62 36.975C266.22 36.735 266.67 36.375 266.97 35.895C267.27 35.385 267.495 34.665 267.645 33.735C267.735 33.285 267.87 33.06 268.05 33.06C268.2 33.06 268.275 33.135 268.275 33.285C268.305 33.435 268.32 33.585 268.32 33.735C268.32 33.825 268.29 34.065 268.23 34.455C268.2 34.815 268.155 35.235 268.095 35.715C268.035 36.165 267.975 36.615 267.915 37.065C267.855 37.515 267.795 37.86 267.735 38.1C267.645 38.4 267.555 38.625 267.465 38.775C267.375 38.925 267.24 39.03 267.06 39.09C266.88 39.18 266.655 39.225 266.385 39.225C266.115 39.255 265.755 39.27 265.305 39.27C263.595 39.27 262.11 39.255 260.85 39.225C259.62 39.195 258.57 39.165 257.7 39.135C256.83 39.075 256.11 39.03 255.54 39C254.97 39 254.52 39 254.19 39C254.13 39 253.935 39 253.605 39C253.275 39 252.87 39.015 252.39 39.045C251.94 39.045 251.475 39.06 250.995 39.09C250.515 39.12 250.11 39.135 249.78 39.135C249.3 39.135 249.06 39.015 249.06 38.775C249.06 38.595 249.18 38.505 249.42 38.505C249.63 38.505 249.855 38.49 250.095 38.46C250.335 38.43 250.56 38.385 250.77 38.325C251.22 38.235 251.52 37.965 251.67 37.515C251.85 37.065 251.985 36.51 252.075 35.85C252.195 34.89 252.255 33.57 252.255 31.89C252.285 30.18 252.3 28.245 252.3 26.085ZM279.766 26.085V18.165C279.766 16.425 279.766 15 279.766 13.89C279.766 12.78 279.766 11.895 279.766 11.235C279.766 10.545 279.751 10.005 279.721 9.615C279.721 9.195 279.706 8.805 279.676 8.445C279.616 7.665 279.466 7.08 279.226 6.69C278.986 6.3 278.491 6.03 277.741 5.88C277.561 5.82 277.306 5.79 276.976 5.79C276.676 5.76 276.421 5.745 276.211 5.745C275.971 5.745 275.851 5.655 275.851 5.475C275.851 5.235 276.091 5.115 276.571 5.115C277.081 5.115 277.621 5.13 278.191 5.16C278.761 5.16 279.286 5.175 279.766 5.205C280.276 5.205 280.696 5.22 281.026 5.25C281.386 5.25 281.596 5.25 281.656 5.25C281.776 5.25 282.046 5.25 282.466 5.25C282.916 5.22 283.411 5.205 283.951 5.205C284.521 5.175 285.076 5.16 285.616 5.16C286.156 5.13 286.606 5.115 286.966 5.115C288.406 5.115 289.831 5.235 291.241 5.475C292.681 5.685 294.001 6.225 295.201 7.095C295.471 7.305 295.786 7.605 296.146 7.995C296.506 8.355 296.836 8.79 297.136 9.3C297.466 9.81 297.736 10.395 297.946 11.055C298.186 11.715 298.306 12.435 298.306 13.215C298.306 14.895 297.901 16.59 297.091 18.3C296.281 19.98 294.871 21.75 292.861 23.61C294.721 25.98 296.416 28.14 297.946 30.09C299.476 32.04 300.901 33.72 302.221 35.13C303.451 36.42 304.531 37.26 305.461 37.65C306.391 38.04 307.141 38.28 307.711 38.37C308.131 38.43 308.491 38.475 308.791 38.505C309.091 38.505 309.316 38.505 309.466 38.505C309.736 38.505 309.871 38.595 309.871 38.775C309.871 38.925 309.796 39.015 309.646 39.045C309.496 39.105 309.211 39.135 308.791 39.135H305.596C304.336 39.135 303.361 39.075 302.671 38.955C301.981 38.835 301.351 38.61 300.781 38.28C299.821 37.77 298.891 36.975 297.991 35.895C297.091 34.785 295.996 33.375 294.706 31.665C294.226 31.035 293.746 30.39 293.266 29.73C292.786 29.07 292.321 28.44 291.871 27.84C291.451 27.24 291.046 26.7 290.656 26.22C290.296 25.71 290.011 25.305 289.801 25.005C289.621 24.825 289.426 24.735 289.216 24.735L283.681 24.645C283.471 24.645 283.366 24.765 283.366 25.005V26.085C283.366 28.245 283.366 30.18 283.366 31.89C283.396 33.57 283.471 34.89 283.591 35.85C283.651 36.51 283.786 37.065 283.996 37.515C284.206 37.965 284.656 38.235 285.346 38.325C285.676 38.385 286.036 38.43 286.426 38.46C286.846 38.49 287.161 38.505 287.371 38.505C287.611 38.505 287.731 38.595 287.731 38.775C287.731 39.015 287.491 39.135 287.011 39.135C286.381 39.135 285.751 39.12 285.121 39.09C284.491 39.09 283.906 39.075 283.366 39.045C282.856 39.045 282.421 39.03 282.061 39C281.731 39 281.536 39 281.476 39C281.476 39 281.311 39 280.981 39C280.681 39.03 280.306 39.045 279.856 39.045C279.406 39.075 278.941 39.09 278.461 39.09C277.981 39.12 277.576 39.135 277.246 39.135C276.766 39.135 276.526 39.015 276.526 38.775C276.526 38.595 276.646 38.505 276.886 38.505C277.096 38.505 277.321 38.49 277.561 38.46C277.801 38.43 278.026 38.385 278.236 38.325C278.686 38.235 278.986 37.965 279.136 37.515C279.316 37.065 279.451 36.51 279.541 35.85C279.661 34.89 279.721 33.57 279.721 31.89C279.751 30.18 279.766 28.245 279.766 26.085ZM283.366 7.365V22.08C283.366 22.32 283.471 22.5 283.681 22.62C284.011 22.83 284.626 23.01 285.526 23.16C286.456 23.28 287.416 23.34 288.406 23.34C288.946 23.34 289.516 23.295 290.116 23.205C290.716 23.085 291.271 22.845 291.781 22.485C292.561 21.945 293.206 21.09 293.716 19.92C294.256 18.72 294.526 17.265 294.526 15.555C294.526 12.735 293.836 10.53 292.456 8.94C291.076 7.35 289.171 6.555 286.741 6.555C286.051 6.555 285.436 6.585 284.896 6.645C284.356 6.705 283.966 6.765 283.726 6.825C283.486 6.915 283.366 7.095 283.366 7.365ZM313.692 26.085V18.165C313.692 16.425 313.692 15 313.692 13.89C313.692 12.78 313.692 11.895 313.692 11.235C313.692 10.545 313.677 10.005 313.647 9.615C313.647 9.195 313.632 8.805 313.602 8.445C313.542 7.665 313.392 7.08 313.152 6.69C312.912 6.3 312.417 6.03 311.667 5.88C311.487 5.82 311.232 5.79 310.902 5.79C310.602 5.76 310.347 5.745 310.137 5.745C309.897 5.745 309.777 5.655 309.777 5.475C309.777 5.235 310.017 5.115 310.497 5.115C311.007 5.115 311.547 5.13 312.117 5.16C312.687 5.16 313.212 5.175 313.692 5.205C314.202 5.205 314.622 5.22 314.952 5.25C315.312 5.25 315.522 5.25 315.582 5.25C315.702 5.25 315.972 5.25 316.392 5.25C316.842 5.22 317.337 5.205 317.877 5.205C318.447 5.175 319.002 5.16 319.542 5.16C320.082 5.13 320.532 5.115 320.892 5.115C322.332 5.115 323.757 5.235 325.167 5.475C326.607 5.685 327.927 6.225 329.127 7.095C329.397 7.305 329.712 7.605 330.072 7.995C330.432 8.355 330.762 8.79 331.062 9.3C331.392 9.81 331.662 10.395 331.872 11.055C332.112 11.715 332.232 12.435 332.232 13.215C332.232 14.895 331.827 16.59 331.017 18.3C330.207 19.98 328.797 21.75 326.787 23.61C328.647 25.98 330.342 28.14 331.872 30.09C333.402 32.04 334.827 33.72 336.147 35.13C337.377 36.42 338.457 37.26 339.387 37.65C340.317 38.04 341.067 38.28 341.637 38.37C342.057 38.43 342.417 38.475 342.717 38.505C343.017 38.505 343.242 38.505 343.392 38.505C343.662 38.505 343.797 38.595 343.797 38.775C343.797 38.925 343.722 39.015 343.572 39.045C343.422 39.105 343.137 39.135 342.717 39.135H339.522C338.262 39.135 337.287 39.075 336.597 38.955C335.907 38.835 335.277 38.61 334.707 38.28C333.747 37.77 332.817 36.975 331.917 35.895C331.017 34.785 329.922 33.375 328.632 31.665C328.152 31.035 327.672 30.39 327.192 29.73C326.712 29.07 326.247 28.44 325.797 27.84C325.377 27.24 324.972 26.7 324.582 26.22C324.222 25.71 323.937 25.305 323.727 25.005C323.547 24.825 323.352 24.735 323.142 24.735L317.607 24.645C317.397 24.645 317.292 24.765 317.292 25.005V26.085C317.292 28.245 317.292 30.18 317.292 31.89C317.322 33.57 317.397 34.89 317.517 35.85C317.577 36.51 317.712 37.065 317.922 37.515C318.132 37.965 318.582 38.235 319.272 38.325C319.602 38.385 319.962 38.43 320.352 38.46C320.772 38.49 321.087 38.505 321.297 38.505C321.537 38.505 321.657 38.595 321.657 38.775C321.657 39.015 321.417 39.135 320.937 39.135C320.307 39.135 319.677 39.12 319.047 39.09C318.417 39.09 317.832 39.075 317.292 39.045C316.782 39.045 316.347 39.03 315.987 39C315.657 39 315.462 39 315.402 39C315.402 39 315.237 39 314.907 39C314.607 39.03 314.232 39.045 313.782 39.045C313.332 39.075 312.867 39.09 312.387 39.09C311.907 39.12 311.502 39.135 311.172 39.135C310.692 39.135 310.452 39.015 310.452 38.775C310.452 38.595 310.572 38.505 310.812 38.505C311.022 38.505 311.247 38.49 311.487 38.46C311.727 38.43 311.952 38.385 312.162 38.325C312.612 38.235 312.912 37.965 313.062 37.515C313.242 37.065 313.377 36.51 313.467 35.85C313.587 34.89 313.647 33.57 313.647 31.89C313.677 30.18 313.692 28.245 313.692 26.085ZM317.292 7.365V22.08C317.292 22.32 317.397 22.5 317.607 22.62C317.937 22.83 318.552 23.01 319.452 23.16C320.382 23.28 321.342 23.34 322.332 23.34C322.872 23.34 323.442 23.295 324.042 23.205C324.642 23.085 325.197 22.845 325.707 22.485C326.487 21.945 327.132 21.09 327.642 19.92C328.182 18.72 328.452 17.265 328.452 15.555C328.452 12.735 327.762 10.53 326.382 8.94C325.002 7.35 323.097 6.555 320.667 6.555C319.977 6.555 319.362 6.585 318.822 6.645C318.282 6.705 317.892 6.765 317.652 6.825C317.412 6.915 317.292 7.095 317.292 7.365ZM344.102 34.185L354.317 6.24C354.587 5.49 354.782 5.01 354.902 4.8C355.022 4.59 355.157 4.485 355.307 4.485C355.457 4.485 355.592 4.59 355.712 4.8C355.832 4.98 356.027 5.415 356.297 6.105C356.417 6.375 356.687 7.08 357.107 8.22C357.557 9.36 358.082 10.755 358.682 12.405C359.312 14.025 360.002 15.81 360.752 17.76C361.502 19.71 362.237 21.645 362.957 23.565C363.707 25.455 364.412 27.255 365.072 28.965C365.762 30.675 366.332 32.1 366.782 33.24C367.172 34.23 367.547 35.04 367.907 35.67C368.297 36.3 368.642 36.795 368.942 37.155C369.272 37.515 369.572 37.77 369.842 37.92C370.142 38.07 370.412 38.175 370.652 38.235C370.982 38.355 371.297 38.43 371.597 38.46C371.927 38.49 372.212 38.505 372.452 38.505C372.752 38.505 372.902 38.595 372.902 38.775C372.902 38.925 372.812 39.015 372.632 39.045C372.452 39.105 372.242 39.135 372.002 39.135C371.822 39.135 371.492 39.135 371.012 39.135C370.562 39.135 370.007 39.135 369.347 39.135C368.717 39.135 368.012 39.12 367.232 39.09C366.482 39.09 365.717 39.075 364.937 39.045C364.517 39.015 364.187 39 363.947 39C363.707 38.97 363.587 38.88 363.587 38.73C363.587 38.58 363.692 38.475 363.902 38.415C364.052 38.355 364.172 38.235 364.262 38.055C364.352 37.845 364.322 37.56 364.172 37.2L359.987 26.13C359.897 25.95 359.762 25.86 359.582 25.86H349.907C349.697 25.86 349.547 25.98 349.457 26.22L346.757 34.185C346.337 35.355 346.127 36.36 346.127 37.2C346.127 37.65 346.307 37.98 346.667 38.19C347.057 38.4 347.447 38.505 347.837 38.505H348.287C348.587 38.505 348.737 38.595 348.737 38.775C348.737 39.015 348.512 39.135 348.062 39.135C347.792 39.135 347.477 39.12 347.117 39.09C346.757 39.09 346.412 39.075 346.082 39.045C345.752 39.045 345.437 39.03 345.137 39C344.867 39 344.672 39 344.552 39C344.432 39 344.192 39 343.832 39C343.502 39.03 343.097 39.045 342.617 39.045C342.137 39.075 341.627 39.09 341.087 39.09C340.547 39.12 340.007 39.135 339.467 39.135C338.897 39.135 338.612 39.015 338.612 38.775C338.612 38.595 338.747 38.505 339.017 38.505C339.167 38.505 339.377 38.505 339.647 38.505C339.917 38.475 340.142 38.445 340.322 38.415C341.372 38.265 342.152 37.815 342.662 37.065C343.202 36.285 343.682 35.325 344.102 34.185ZM350.402 24.24H358.997C359.177 24.24 359.237 24.135 359.177 23.925L354.902 11.775C354.662 11.115 354.437 11.115 354.227 11.775L350.267 23.925C350.177 24.135 350.222 24.24 350.402 24.24ZM383.126 18.165V26.085C383.126 28.245 383.126 30.18 383.126 31.89C383.156 33.57 383.231 34.89 383.351 35.85C383.411 36.51 383.546 37.065 383.756 37.515C383.966 37.965 384.416 38.235 385.106 38.325C385.436 38.385 385.796 38.43 386.186 38.46C386.606 38.49 386.921 38.505 387.131 38.505C387.371 38.505 387.491 38.595 387.491 38.775C387.491 39.015 387.251 39.135 386.771 39.135C386.141 39.135 385.511 39.12 384.881 39.09C384.251 39.09 383.666 39.075 383.126 39.045C382.616 39.045 382.181 39.03 381.821 39C381.491 39 381.296 39 381.236 39C381.176 39 380.966 39 380.606 39C380.276 39.03 379.886 39.045 379.436 39.045C378.986 39.075 378.521 39.09 378.041 39.09C377.561 39.12 377.156 39.135 376.826 39.135C376.346 39.135 376.106 39.015 376.106 38.775C376.106 38.595 376.226 38.505 376.466 38.505C376.676 38.505 376.901 38.49 377.141 38.46C377.381 38.43 377.606 38.385 377.816 38.325C378.266 38.235 378.566 37.965 378.716 37.515C378.896 37.065 379.031 36.51 379.121 35.85C379.241 34.89 379.301 33.57 379.301 31.89C379.331 30.18 379.346 28.245 379.346 26.085V18.165C379.346 16.425 379.346 15 379.346 13.89C379.346 12.78 379.346 11.895 379.346 11.235C379.346 10.545 379.331 10.005 379.301 9.615C379.301 9.195 379.286 8.805 379.256 8.445C379.166 6.975 378.656 6.135 377.726 5.925C377.486 5.865 377.231 5.82 376.961 5.79C376.691 5.76 376.481 5.745 376.331 5.745C376.091 5.745 375.971 5.655 375.971 5.475C375.971 5.235 376.211 5.115 376.691 5.115C377.051 5.115 377.486 5.13 377.996 5.16C378.506 5.16 378.986 5.175 379.436 5.205C379.886 5.205 380.276 5.22 380.606 5.25C380.966 5.25 381.176 5.25 381.236 5.25C381.296 5.25 381.491 5.25 381.821 5.25C382.181 5.22 382.586 5.205 383.036 5.205C383.486 5.175 383.951 5.16 384.431 5.16C384.911 5.13 385.316 5.115 385.646 5.115C386.126 5.115 386.366 5.235 386.366 5.475C386.366 5.655 386.246 5.745 386.006 5.745C385.856 5.745 385.691 5.76 385.511 5.79C385.361 5.79 385.151 5.82 384.881 5.88C384.281 6 383.861 6.27 383.621 6.69C383.411 7.08 383.276 7.665 383.216 8.445C383.186 8.805 383.156 9.195 383.126 9.615C383.126 10.005 383.126 10.545 383.126 11.235C383.126 11.895 383.126 12.78 383.126 13.89C383.126 15 383.126 16.425 383.126 18.165ZM399.795 11.46L400.38 33.015C400.41 33.945 400.455 34.725 400.515 35.355C400.605 35.955 400.71 36.465 400.83 36.885C400.98 37.275 401.16 37.575 401.37 37.785C401.58 37.995 401.835 38.145 402.135 38.235C402.555 38.355 402.975 38.43 403.395 38.46C403.845 38.49 404.175 38.505 404.385 38.505C404.625 38.505 404.745 38.595 404.745 38.775C404.745 39.015 404.475 39.135 403.935 39.135C402.645 39.135 401.58 39.105 400.74 39.045C399.9 39.015 399.375 39 399.165 39C398.955 39 398.43 39.015 397.59 39.045C396.78 39.105 395.865 39.135 394.845 39.135C394.365 39.135 394.125 39.015 394.125 38.775C394.125 38.595 394.245 38.505 394.485 38.505C394.665 38.505 394.935 38.49 395.295 38.46C395.655 38.43 396 38.355 396.33 38.235C396.9 38.085 397.26 37.605 397.41 36.795C397.59 35.985 397.68 34.56 397.68 32.52L397.725 6.735C397.725 5.865 397.755 5.28 397.815 4.98C397.905 4.65 398.04 4.485 398.22 4.485C398.4 4.485 398.64 4.665 398.94 5.025C399.27 5.385 399.555 5.685 399.795 5.925C399.975 6.105 400.485 6.675 401.325 7.635C402.195 8.565 403.29 9.735 404.61 11.145C405.93 12.555 407.4 14.145 409.02 15.915C410.67 17.685 412.365 19.5 414.105 21.36C415.215 22.56 416.325 23.775 417.435 25.005C418.575 26.235 419.64 27.39 420.63 28.47C421.62 29.55 422.49 30.51 423.24 31.35C423.99 32.16 424.545 32.745 424.905 33.105L424.41 10.245C424.38 8.775 424.245 7.74 424.005 7.14C423.795 6.54 423.345 6.15 422.655 5.97C422.235 5.88 421.8 5.82 421.35 5.79C420.93 5.76 420.63 5.745 420.45 5.745C420.21 5.745 420.09 5.64 420.09 5.43C420.09 5.22 420.39 5.115 420.99 5.115C421.5 5.115 421.995 5.13 422.475 5.16C422.985 5.16 423.45 5.175 423.87 5.205C424.32 5.205 424.695 5.22 424.995 5.25C425.325 5.25 425.55 5.25 425.67 5.25C425.91 5.25 426.375 5.235 427.065 5.205C427.755 5.145 428.565 5.115 429.495 5.115C430.035 5.115 430.305 5.22 430.305 5.43C430.305 5.64 430.14 5.745 429.81 5.745C429.69 5.745 429.54 5.76 429.36 5.79C429.21 5.79 429 5.82 428.73 5.88C427.98 6.03 427.515 6.405 427.335 7.005C427.155 7.575 427.065 8.535 427.065 9.885L426.975 36.255C426.975 37.005 426.96 37.59 426.93 38.01C426.93 38.43 426.915 38.745 426.885 38.955C426.855 39.165 426.81 39.3 426.75 39.36C426.72 39.42 426.66 39.45 426.57 39.45C426.48 39.45 426.36 39.405 426.21 39.315C426.09 39.255 425.91 39.12 425.67 38.91C425.43 38.7 425.115 38.415 424.725 38.055C424.365 37.665 423.885 37.17 423.285 36.57C423.165 36.45 422.7 36 421.89 35.22C421.11 34.41 420.15 33.42 419.01 32.25C417.87 31.05 416.64 29.76 415.32 28.38C414 27 412.74 25.665 411.54 24.375C410.22 22.965 408.93 21.585 407.67 20.235C406.44 18.855 405.3 17.58 404.25 16.41C403.2 15.24 402.285 14.235 401.505 13.395C400.725 12.525 400.155 11.88 399.795 11.46Z"></path>
</svg>
